<?xml version="1.0" encoding="UTF-8"?>
<svg xmlns="http://www.w3.org/2000/svg" xmlns:xlink="http://www.w3.org/1999/xlink" width="250pt" height="250pt" viewBox="0 0 250 250" version="1.1">
<g id="surface338">
<path style=" stroke:none;fill-rule:nonzero;fill:rgb(79.6%,23.5%,20%);fill-opacity:1;" d="M 110 30 C 110 43.808594 98.808594 55 85 55 C 71.191406 55 60 43.808594 60 30 C 60 16.191406 71.191406 5 85 5 C 98.808594 5 110 16.191406 110 30 "/>
<path style=" stroke:none;fill-rule:nonzero;fill:rgb(58.4%,34.5%,69.8%);fill-opacity:1;" d="M 185 30 C 185 43.808594 173.808594 55 160 55 C 146.191406 55 135 43.808594 135 30 C 135 16.191406 146.191406 5 160 5 C 173.808594 5 185 16.191406 185 30 "/>
<path style=" stroke:none;fill-rule:nonzero;fill:rgb(0%,0%,0%);fill-opacity:1;" d="M 102.300781 229.199219 C 88.695313 229.195313 77.847656 225.449219 69.75 217.949219 C 61.648438 210.453125 57.597656 200.300781 57.601563 187.5 C 57.597656 175.300781 60.945313 165.851563 67.648438 159.152344 C 74.34375 152.453125 83.996094 147.605469 96.597656 144.601563 C 109.199219 141.605469 124.5 139.703125 142.5 138.898438 L 142.5 117 C 142.5 106.203125 140.398438 98.355469 136.199219 93.453125 C 131.996094 88.554688 125.394531 86.105469 116.398438 86.101563 C 111.59375 86.105469 106.894531 86.804688 102.296875 88.203125 C 97.695313 89.605469 93.796875 91.605469 90.601563 94.199219 C 95.597656 102.804688 98.097656 108.402344 98.101563 111 C 98.097656 115.601563 96.246094 119.304688 92.550781 122.101563 C 88.847656 124.90625 84 126.304688 78 126.300781 C 72 126.304688 67.296875 124.753906 63.898438 121.652344 C 60.496094 118.550781 58.796875 114.101563 58.800781 108.300781 C 58.796875 101.101563 61.699219 94.402344 67.5 88.199219 C 73.296875 82.003906 80.945313 77.003906 90.449219 73.199219 C 99.945313 69.402344 110.195313 67.5 121.199219 67.5 C 141.398438 67.5 156.199219 72.152344 165.597656 81.449219 C 174.996094 90.753906 179.695313 105.203125 179.699219 124.800781 L 179.699219 192.300781 C 179.695313 201.304688 183.796875 205.804688 192 205.800781 C 193.796875 205.804688 195.746094 205.605469 197.847656 205.203125 C 199.949219 204.804688 202.398438 204.203125 205.199219 203.398438 L 208.800781 216.898438 C 204.597656 220.703125 199.648438 223.699219 193.949219 225.898438 C 188.246094 228.09375 182.496094 229.195313 176.699219 229.199219 C 168.898438 229.195313 162.5 227.046875 157.5 222.75 C 152.5 218.453125 149.199219 212.40625 147.601563 204.601563 C 137.199219 221 122.097656 229.195313 102.300781 229.199219 Z M 117 204.601563 C 125 204.605469 131.25 202.152344 135.75 197.25 C 140.25 192.351563 142.5 185.703125 142.5 177.300781 L 142.5 156.601563 C 127.699219 156.605469 116.246094 158.605469 108.148438 162.601563 C 100.046875 166.605469 96 173.503906 96 183.300781 C 96 189.902344 97.847656 195.101563 101.550781 198.902344 C 105.246094 202.703125 110.398438 204.605469 117 204.601563 Z M 210 225 "/>
</g>
</svg>